<svg width="299" height="383" viewBox="0 0 299 383" fill="none" xmlns="http://www.w3.org/2000/svg">
<path d="M0 50C0 22.3858 22.3858 0 50 0H249C276.614 0 299 22.3858 299 50V333C299 360.614 276.614 383 249 383H50C22.3858 383 0 360.614 0 333V50Z" fill="url(#paint0_linear_1_2)"/>
<path fill-rule="evenodd" clip-rule="evenodd" d="M25 38.0426C24.9883 35.2812 27.2173 33.0331 29.9787 33.0213L269.979 32C272.74 31.9883 274.988 34.2173 275 36.9787C275.012 39.7401 272.783 41.9882 270.021 42L30.0213 43.0212C27.2599 43.033 25.0118 40.804 25 38.0426Z" fill="url(#paint1_linear_1_2)"/>
<path fill-rule="evenodd" clip-rule="evenodd" d="M25.0213 353.043C25.0096 350.281 27.2386 348.033 30 348.021L270 347C272.761 346.988 275.009 349.217 275.021 351.979C275.033 354.74 272.804 356.988 270.042 357L30.0425 358.021C27.2811 358.033 25.0331 355.804 25.0213 353.043Z" fill="url(#paint2_linear_1_2)"/>
<path fill-rule="evenodd" clip-rule="evenodd" d="M25.0213 318.043C25.0096 315.281 27.2386 313.033 30 313.021L270 312C272.761 311.988 275.009 314.217 275.021 316.979C275.033 319.74 272.804 321.988 270.042 322L30.0425 323.021C27.2811 323.033 25.0331 320.804 25.0213 318.043Z" fill="url(#paint3_linear_1_2)"/>
<path fill-rule="evenodd" clip-rule="evenodd" d="M25.0213 283.042C25.0096 280.281 27.2386 278.033 30 278.021L270 277C272.761 276.988 275.009 279.217 275.021 281.979C275.033 284.74 272.804 286.988 270.042 287L30.0425 288.021C27.2811 288.033 25.0331 285.804 25.0213 283.042Z" fill="url(#paint4_linear_1_2)"/>
<path fill-rule="evenodd" clip-rule="evenodd" d="M25.0213 248.042C25.0096 245.281 27.2386 243.033 30 243.021L270 242C272.761 241.988 275.009 244.217 275.021 246.979C275.033 249.74 272.804 251.988 270.042 252L30.0425 253.021C27.2811 253.033 25.0331 250.804 25.0213 248.042Z" fill="url(#paint5_linear_1_2)"/>
<path fill-rule="evenodd" clip-rule="evenodd" d="M25.0213 213.042C25.0096 210.281 27.2386 208.033 30 208.021L270 207C272.761 206.988 275.009 209.217 275.021 211.979C275.033 214.74 272.804 216.988 270.042 217L30.0425 218.021C27.2811 218.033 25.0331 215.804 25.0213 213.042Z" fill="url(#paint6_linear_1_2)"/>
<path fill-rule="evenodd" clip-rule="evenodd" d="M25.0213 178.042C25.0096 175.281 27.2386 173.033 30 173.021L270 172C272.761 171.988 275.009 174.217 275.021 176.979C275.033 179.74 272.804 181.988 270.042 182L30.0425 183.021C27.2811 183.033 25.0331 180.804 25.0213 178.042Z" fill="url(#paint7_linear_1_2)"/>
<path fill-rule="evenodd" clip-rule="evenodd" d="M25.0213 143.043C25.0096 140.281 27.2386 138.033 30 138.021L270 137C272.761 136.988 275.009 139.217 275.021 141.979C275.033 144.74 272.804 146.988 270.042 147L30.0425 148.021C27.2811 148.033 25.0331 145.804 25.0213 143.043Z" fill="url(#paint8_linear_1_2)"/>
<path fill-rule="evenodd" clip-rule="evenodd" d="M25.0213 108.043C25.0096 105.281 27.2386 103.033 30 103.021L270 102C272.761 101.988 275.009 104.217 275.021 106.979C275.033 109.74 272.804 111.988 270.042 112L30.0425 113.021C27.2811 113.033 25.0331 110.804 25.0213 108.043Z" fill="url(#paint9_linear_1_2)"/>
<path fill-rule="evenodd" clip-rule="evenodd" d="M25.0213 73.0425C25.0096 70.2811 27.2386 68.033 30 68.0213L270 67C272.761 66.9883 275.009 69.2173 275.021 71.9787C275.033 74.7401 272.804 76.9882 270.042 76.9999L30.0425 78.0212C27.2811 78.0329 25.0331 75.8039 25.0213 73.0425Z" fill="url(#paint10_linear_1_2)"/>
<path d="M43.591 255V249.88H52.743V217.56L44.167 224.024L41.031 219.736L54.279 210.2H58.503V249.88H66.119V255H43.591Z" fill="url(#paint11_linear_1_2)"/>
<path d="M91.886 255.768C86.894 255.768 83.0967 253.741 80.494 249.688C77.8913 245.592 76.59 239.875 76.59 232.536C76.59 225.155 77.9127 219.459 80.558 215.448C83.246 211.437 87.0647 209.432 92.014 209.432C97.006 209.432 100.803 211.459 103.406 215.512C106.009 219.565 107.31 225.283 107.31 232.664C107.31 240.045 105.966 245.741 103.278 249.752C100.633 253.763 96.8353 255.768 91.886 255.768ZM91.95 250.52C93.87 250.52 95.5127 249.965 96.878 248.856C98.286 247.704 99.3527 245.827 100.078 243.224C100.846 240.621 101.23 237.123 101.23 232.728C101.23 226.84 100.398 222.36 98.734 219.288C97.1127 216.216 94.8513 214.68 91.95 214.68C90.03 214.68 88.366 215.256 86.958 216.408C85.5927 217.517 84.526 219.373 83.758 221.976C83.0327 224.536 82.67 228.035 82.67 232.472C82.67 238.36 83.4807 242.84 85.102 245.912C86.766 248.984 89.0487 250.52 91.95 250.52Z" fill="url(#paint12_linear_1_2)"/>
<path d="M120.341 255V249.88H129.493V217.56L120.917 224.024L117.781 219.736L131.029 210.2H135.253V249.88H142.869V255H120.341Z" fill="url(#paint13_linear_1_2)"/>
<path d="M168.636 255.768C163.644 255.768 159.847 253.741 157.244 249.688C154.641 245.592 153.34 239.875 153.34 232.536C153.34 225.155 154.663 219.459 157.308 215.448C159.996 211.437 163.815 209.432 168.764 209.432C173.756 209.432 177.553 211.459 180.156 215.512C182.759 219.565 184.06 225.283 184.06 232.664C184.06 240.045 182.716 245.741 180.028 249.752C177.383 253.763 173.585 255.768 168.636 255.768ZM168.7 250.52C170.62 250.52 172.263 249.965 173.628 248.856C175.036 247.704 176.103 245.827 176.828 243.224C177.596 240.621 177.98 237.123 177.98 232.728C177.98 226.84 177.148 222.36 175.484 219.288C173.863 216.216 171.601 214.68 168.7 214.68C166.78 214.68 165.116 215.256 163.708 216.408C162.343 217.517 161.276 219.373 160.508 221.976C159.783 224.536 159.42 228.035 159.42 232.472C159.42 238.36 160.231 242.84 161.852 245.912C163.516 248.984 165.799 250.52 168.7 250.52Z" fill="url(#paint14_linear_1_2)"/>
<path d="M207.011 255.768C202.019 255.768 198.222 253.741 195.619 249.688C193.016 245.592 191.715 239.875 191.715 232.536C191.715 225.155 193.038 219.459 195.683 215.448C198.371 211.437 202.19 209.432 207.139 209.432C212.131 209.432 215.928 211.459 218.531 215.512C221.134 219.565 222.435 225.283 222.435 232.664C222.435 240.045 221.091 245.741 218.403 249.752C215.758 253.763 211.96 255.768 207.011 255.768ZM207.075 250.52C208.995 250.52 210.638 249.965 212.003 248.856C213.411 247.704 214.478 245.827 215.203 243.224C215.971 240.621 216.355 237.123 216.355 232.728C216.355 226.84 215.523 222.36 213.859 219.288C212.238 216.216 209.976 214.68 207.075 214.68C205.155 214.68 203.491 215.256 202.083 216.408C200.718 217.517 199.651 219.373 198.883 221.976C198.158 224.536 197.795 228.035 197.795 232.472C197.795 238.36 198.606 242.84 200.227 245.912C201.891 248.984 204.174 250.52 207.075 250.52Z" fill="url(#paint15_linear_1_2)"/>
<path d="M245.386 255.768C240.394 255.768 236.597 253.741 233.994 249.688C231.391 245.592 230.09 239.875 230.09 232.536C230.09 225.155 231.413 219.459 234.058 215.448C236.746 211.437 240.565 209.432 245.514 209.432C250.506 209.432 254.303 211.459 256.906 215.512C259.509 219.565 260.81 225.283 260.81 232.664C260.81 240.045 259.466 245.741 256.778 249.752C254.133 253.763 250.335 255.768 245.386 255.768ZM245.45 250.52C247.37 250.52 249.013 249.965 250.378 248.856C251.786 247.704 252.853 245.827 253.578 243.224C254.346 240.621 254.73 237.123 254.73 232.728C254.73 226.84 253.898 222.36 252.234 219.288C250.613 216.216 248.351 214.68 245.45 214.68C243.53 214.68 241.866 215.256 240.458 216.408C239.093 217.517 238.026 219.373 237.258 221.976C236.533 224.536 236.17 228.035 236.17 232.472C236.17 238.36 236.981 242.84 238.602 245.912C240.266 248.984 242.549 250.52 245.45 250.52Z" fill="url(#paint16_linear_1_2)"/>
<path d="M43.591 339V333.88H52.743V301.56L44.167 308.024L41.031 303.736L54.279 294.2H58.503V333.88H66.119V339H43.591Z" fill="url(#paint17_linear_1_2)"/>
<path d="M81.966 339V333.88H91.118V301.56L82.542 308.024L79.406 303.736L92.654 294.2H96.878V333.88H104.494V339H81.966Z" fill="url(#paint18_linear_1_2)"/>
<path d="M130.261 339.768C125.269 339.768 121.472 337.741 118.869 333.688C116.266 329.592 114.965 323.875 114.965 316.536C114.965 309.155 116.288 303.459 118.933 299.448C121.621 295.437 125.44 293.432 130.389 293.432C135.381 293.432 139.178 295.459 141.781 299.512C144.384 303.565 145.685 309.283 145.685 316.664C145.685 324.045 144.341 329.741 141.653 333.752C139.008 337.763 135.21 339.768 130.261 339.768ZM130.325 334.52C132.245 334.52 133.888 333.965 135.253 332.856C136.661 331.704 137.728 329.827 138.453 327.224C139.221 324.621 139.605 321.123 139.605 316.728C139.605 310.84 138.773 306.36 137.109 303.288C135.488 300.216 133.226 298.68 130.325 298.68C128.405 298.68 126.741 299.256 125.333 300.408C123.968 301.517 122.901 303.373 122.133 305.976C121.408 308.536 121.045 312.035 121.045 316.472C121.045 322.36 121.856 326.84 123.477 329.912C125.141 332.984 127.424 334.52 130.325 334.52Z" fill="url(#paint19_linear_1_2)"/>
<path d="M158.716 339V333.88H167.868V301.56L159.292 308.024L156.156 303.736L169.404 294.2H173.628V333.88H181.244V339H158.716Z" fill="url(#paint20_linear_1_2)"/>
<path d="M207.011 339.768C202.019 339.768 198.222 337.741 195.619 333.688C193.016 329.592 191.715 323.875 191.715 316.536C191.715 309.155 193.038 303.459 195.683 299.448C198.371 295.437 202.19 293.432 207.139 293.432C212.131 293.432 215.928 295.459 218.531 299.512C221.134 303.565 222.435 309.283 222.435 316.664C222.435 324.045 221.091 329.741 218.403 333.752C215.758 337.763 211.96 339.768 207.011 339.768ZM207.075 334.52C208.995 334.52 210.638 333.965 212.003 332.856C213.411 331.704 214.478 329.827 215.203 327.224C215.971 324.621 216.355 321.123 216.355 316.728C216.355 310.84 215.523 306.36 213.859 303.288C212.238 300.216 209.976 298.68 207.075 298.68C205.155 298.68 203.491 299.256 202.083 300.408C200.718 301.517 199.651 303.373 198.883 305.976C198.158 308.536 197.795 312.035 197.795 316.472C197.795 322.36 198.606 326.84 200.227 329.912C201.891 332.984 204.174 334.52 207.075 334.52Z" fill="url(#paint21_linear_1_2)"/>
<path d="M245.386 339.768C240.394 339.768 236.597 337.741 233.994 333.688C231.391 329.592 230.09 323.875 230.09 316.536C230.09 309.155 231.413 303.459 234.058 299.448C236.746 295.437 240.565 293.432 245.514 293.432C250.506 293.432 254.303 295.459 256.906 299.512C259.509 303.565 260.81 309.283 260.81 316.664C260.81 324.045 259.466 329.741 256.778 333.752C254.133 337.763 250.335 339.768 245.386 339.768ZM245.45 334.52C247.37 334.52 249.013 333.965 250.378 332.856C251.786 331.704 252.853 329.827 253.578 327.224C254.346 324.621 254.73 321.123 254.73 316.728C254.73 310.84 253.898 306.36 252.234 303.288C250.613 300.216 248.351 298.68 245.45 298.68C243.53 298.68 241.866 299.256 240.458 300.408C239.093 301.517 238.026 303.373 237.258 305.976C236.533 308.536 236.17 312.035 236.17 316.472C236.17 322.36 236.981 326.84 238.602 329.912C240.266 332.984 242.549 334.52 245.45 334.52Z" fill="url(#paint22_linear_1_2)"/>
<path d="M53.511 87.768C48.519 87.768 44.7217 85.7413 42.119 81.688C39.5163 77.592 38.215 71.8747 38.215 64.536C38.215 57.1547 39.5377 51.4587 42.183 47.448C44.871 43.4373 48.6897 41.432 53.639 41.432C58.631 41.432 62.4283 43.4587 65.031 47.512C67.6337 51.5653 68.935 57.2827 68.935 64.664C68.935 72.0453 67.591 77.7413 64.903 81.752C62.2577 85.7627 58.4603 87.768 53.511 87.768ZM53.575 82.52C55.495 82.52 57.1377 81.9653 58.503 80.856C59.911 79.704 60.9777 77.8267 61.703 75.224C62.471 72.6213 62.855 69.1227 62.855 64.728C62.855 58.84 62.023 54.36 60.359 51.288C58.7377 48.216 56.4763 46.68 53.575 46.68C51.655 46.68 49.991 47.256 48.583 48.408C47.2177 49.5173 46.151 51.3733 45.383 53.976C44.6577 56.536 44.295 60.0347 44.295 64.472C44.295 70.36 45.1057 74.84 46.727 77.912C48.391 80.984 50.6737 82.52 53.575 82.52Z" fill="url(#paint23_linear_1_2)"/>
<path d="M81.966 87V81.88H91.118V49.56L82.542 56.024L79.406 51.736L92.654 42.2H96.878V81.88H104.494V87H81.966Z" fill="url(#paint24_linear_1_2)"/>
<path d="M120.341 87V81.88H129.493V49.56L120.917 56.024L117.781 51.736L131.029 42.2H135.253V81.88H142.869V87H120.341Z" fill="url(#paint25_linear_1_2)"/>
<path d="M158.716 87V81.88H167.868V49.56L159.292 56.024L156.156 51.736L169.404 42.2H173.628V81.88H181.244V87H158.716Z" fill="url(#paint26_linear_1_2)"/>
<path d="M197.091 87V81.88H206.243V49.56L197.667 56.024L194.531 51.736L207.779 42.2H212.003V81.88H219.619V87H197.091Z" fill="url(#paint27_linear_1_2)"/>
<path d="M235.466 87V81.88H244.618V49.56L236.042 56.024L232.906 51.736L246.154 42.2H250.378V81.88H257.994V87H235.466Z" fill="url(#paint28_linear_1_2)"/>
<path d="M53.511 170.768C48.519 170.768 44.7217 168.741 42.119 164.688C39.5163 160.592 38.215 154.875 38.215 147.536C38.215 140.155 39.5377 134.459 42.183 130.448C44.871 126.437 48.6897 124.432 53.639 124.432C58.631 124.432 62.4283 126.459 65.031 130.512C67.6337 134.565 68.935 140.283 68.935 147.664C68.935 155.045 67.591 160.741 64.903 164.752C62.2577 168.763 58.4603 170.768 53.511 170.768ZM53.575 165.52C55.495 165.52 57.1377 164.965 58.503 163.856C59.911 162.704 60.9777 160.827 61.703 158.224C62.471 155.621 62.855 152.123 62.855 147.728C62.855 141.84 62.023 137.36 60.359 134.288C58.7377 131.216 56.4763 129.68 53.575 129.68C51.655 129.68 49.991 130.256 48.583 131.408C47.2177 132.517 46.151 134.373 45.383 136.976C44.6577 139.536 44.295 143.035 44.295 147.472C44.295 153.36 45.1057 157.84 46.727 160.912C48.391 163.984 50.6737 165.52 53.575 165.52Z" fill="url(#paint29_linear_1_2)"/>
<path d="M81.966 170V164.88H91.118V132.56L82.542 139.024L79.406 134.736L92.654 125.2H96.878V164.88H104.494V170H81.966Z" fill="url(#paint30_linear_1_2)"/>
<path d="M130.261 170.768C125.269 170.768 121.472 168.741 118.869 164.688C116.266 160.592 114.965 154.875 114.965 147.536C114.965 140.155 116.288 134.459 118.933 130.448C121.621 126.437 125.44 124.432 130.389 124.432C135.381 124.432 139.178 126.459 141.781 130.512C144.384 134.565 145.685 140.283 145.685 147.664C145.685 155.045 144.341 160.741 141.653 164.752C139.008 168.763 135.21 170.768 130.261 170.768ZM130.325 165.52C132.245 165.52 133.888 164.965 135.253 163.856C136.661 162.704 137.728 160.827 138.453 158.224C139.221 155.621 139.605 152.123 139.605 147.728C139.605 141.84 138.773 137.36 137.109 134.288C135.488 131.216 133.226 129.68 130.325 129.68C128.405 129.68 126.741 130.256 125.333 131.408C123.968 132.517 122.901 134.373 122.133 136.976C121.408 139.536 121.045 143.035 121.045 147.472C121.045 153.36 121.856 157.84 123.477 160.912C125.141 163.984 127.424 165.52 130.325 165.52Z" fill="url(#paint31_linear_1_2)"/>
<path d="M168.636 170.768C163.644 170.768 159.847 168.741 157.244 164.688C154.641 160.592 153.34 154.875 153.34 147.536C153.34 140.155 154.663 134.459 157.308 130.448C159.996 126.437 163.815 124.432 168.764 124.432C173.756 124.432 177.553 126.459 180.156 130.512C182.759 134.565 184.06 140.283 184.06 147.664C184.06 155.045 182.716 160.741 180.028 164.752C177.383 168.763 173.585 170.768 168.636 170.768ZM168.7 165.52C170.62 165.52 172.263 164.965 173.628 163.856C175.036 162.704 176.103 160.827 176.828 158.224C177.596 155.621 177.98 152.123 177.98 147.728C177.98 141.84 177.148 137.36 175.484 134.288C173.863 131.216 171.601 129.68 168.7 129.68C166.78 129.68 165.116 130.256 163.708 131.408C162.343 132.517 161.276 134.373 160.508 136.976C159.783 139.536 159.42 143.035 159.42 147.472C159.42 153.36 160.231 157.84 161.852 160.912C163.516 163.984 165.799 165.52 168.7 165.52Z" fill="url(#paint32_linear_1_2)"/>
<path d="M197.091 170V164.88H206.243V132.56L197.667 139.024L194.531 134.736L207.779 125.2H212.003V164.88H219.619V170H197.091Z" fill="url(#paint33_linear_1_2)"/>
<path d="M235.466 170V164.88H244.618V132.56L236.042 139.024L232.906 134.736L246.154 125.2H250.378V164.88H257.994V170H235.466Z" fill="url(#paint34_linear_1_2)"/>
<path fill-rule="evenodd" clip-rule="evenodd" d="M43.591 255V249.88H52.743V217.56L44.167 224.024L41.031 219.736L54.279 210.2H58.503V249.88H66.119V255H43.591ZM91.886 255.768C86.894 255.768 83.0967 253.741 80.494 249.688C77.8913 245.592 76.59 239.875 76.59 232.536C76.59 225.155 77.9127 219.459 80.558 215.448C83.246 211.437 87.0647 209.432 92.014 209.432C97.006 209.432 100.803 211.459 103.406 215.512C106.009 219.565 107.31 225.283 107.31 232.664C107.31 240.045 105.966 245.741 103.278 249.752C100.633 253.763 96.8353 255.768 91.886 255.768ZM120.341 255V249.88H129.493V217.56L120.917 224.024L117.781 219.736L131.029 210.2H135.253V249.88H142.869V255H120.341ZM168.636 255.768C163.644 255.768 159.847 253.741 157.244 249.688C154.641 245.592 153.34 239.875 153.34 232.536C153.34 225.155 154.663 219.459 157.308 215.448C159.996 211.437 163.815 209.432 168.764 209.432C173.756 209.432 177.553 211.459 180.156 215.512C182.759 219.565 184.06 225.283 184.06 232.664C184.06 240.045 182.716 245.741 180.028 249.752C177.383 253.763 173.585 255.768 168.636 255.768ZM207.011 255.768C202.019 255.768 198.222 253.741 195.619 249.688C193.016 245.592 191.715 239.875 191.715 232.536C191.715 225.155 193.038 219.459 195.683 215.448C198.371 211.437 202.19 209.432 207.139 209.432C212.131 209.432 215.928 211.459 218.531 215.512C221.134 219.565 222.435 225.283 222.435 232.664C222.435 240.045 221.091 245.741 218.403 249.752C215.758 253.763 211.96 255.768 207.011 255.768ZM245.386 255.768C240.394 255.768 236.597 253.741 233.994 249.688C231.391 245.592 230.09 239.875 230.09 232.536C230.09 225.155 231.413 219.459 234.058 215.448C236.746 211.437 240.565 209.432 245.514 209.432C250.506 209.432 254.303 211.459 256.906 215.512C259.509 219.565 260.81 225.283 260.81 232.664C260.81 240.045 259.466 245.741 256.778 249.752C254.133 253.763 250.335 255.768 245.386 255.768ZM43.591 339V333.88H52.743V301.56L44.167 308.024L41.031 303.736L54.279 294.2H58.503V333.88H66.119V339H43.591ZM81.966 339V333.88H91.118V301.56L82.542 308.024L79.406 303.736L92.654 294.2H96.878V333.88H104.494V339H81.966ZM130.261 339.768C125.269 339.768 121.472 337.741 118.869 333.688C116.266 329.592 114.965 323.875 114.965 316.536C114.965 309.155 116.288 303.459 118.933 299.448C121.621 295.437 125.44 293.432 130.389 293.432C135.381 293.432 139.178 295.459 141.781 299.512C144.384 303.565 145.685 309.283 145.685 316.664C145.685 324.045 144.341 329.741 141.653 333.752C139.008 337.763 135.21 339.768 130.261 339.768ZM158.716 339V333.88H167.868V301.56L159.292 308.024L156.156 303.736L169.404 294.2H173.628V333.88H181.244V339H158.716ZM207.011 339.768C202.019 339.768 198.222 337.741 195.619 333.688C193.016 329.592 191.715 323.875 191.715 316.536C191.715 309.155 193.038 303.459 195.683 299.448C198.371 295.437 202.19 293.432 207.139 293.432C212.131 293.432 215.928 295.459 218.531 299.512C221.134 303.565 222.435 309.283 222.435 316.664C222.435 324.045 221.091 329.741 218.403 333.752C215.758 337.763 211.96 339.768 207.011 339.768ZM245.386 339.768C240.394 339.768 236.597 337.741 233.994 333.688C231.391 329.592 230.09 323.875 230.09 316.536C230.09 309.155 231.413 303.459 234.058 299.448C236.746 295.437 240.565 293.432 245.514 293.432C250.506 293.432 254.303 295.459 256.906 299.512C259.509 303.565 260.81 309.283 260.81 316.664C260.81 324.045 259.466 329.741 256.778 333.752C254.133 337.763 250.335 339.768 245.386 339.768ZM53.511 87.768C48.519 87.768 44.7217 85.7413 42.119 81.688C39.5163 77.592 38.215 71.8747 38.215 64.536C38.215 57.1547 39.5377 51.4587 42.183 47.448C44.871 43.4373 48.6897 41.432 53.639 41.432C58.631 41.432 62.4283 43.4587 65.031 47.512C67.6337 51.5653 68.935 57.2827 68.935 64.664C68.935 72.0453 67.591 77.7413 64.903 81.752C62.2577 85.7627 58.4603 87.768 53.511 87.768ZM81.966 87V81.88H91.118V49.56L82.542 56.024L79.406 51.736L92.654 42.2H96.878V81.88H104.494V87H81.966ZM120.341 87V81.88H129.493V49.56L120.917 56.024L117.781 51.736L131.029 42.2H135.253V81.88H142.869V87H120.341ZM158.716 87V81.88H167.868V49.56L159.292 56.024L156.156 51.736L169.404 42.2H173.628V81.88H181.244V87H158.716ZM197.091 87V81.88H206.243V49.56L197.667 56.024L194.531 51.736L207.779 42.2H212.003V81.88H219.619V87H197.091ZM235.466 87V81.88H244.618V49.56L236.042 56.024L232.906 51.736L246.154 42.2H250.378V81.88H257.994V87H235.466ZM53.511 170.768C48.519 170.768 44.7217 168.741 42.119 164.688C39.5163 160.592 38.215 154.875 38.215 147.536C38.215 140.155 39.5377 134.459 42.183 130.448C44.871 126.437 48.6897 124.432 53.639 124.432C58.631 124.432 62.4283 126.459 65.031 130.512C67.6337 134.565 68.935 140.283 68.935 147.664C68.935 155.045 67.591 160.741 64.903 164.752C62.2577 168.763 58.4603 170.768 53.511 170.768ZM81.966 170V164.88H91.118V132.56L82.542 139.024L79.406 134.736L92.654 125.2H96.878V164.88H104.494V170H81.966ZM130.261 170.768C125.269 170.768 121.472 168.741 118.869 164.688C116.266 160.592 114.965 154.875 114.965 147.536C114.965 140.155 116.288 134.459 118.933 130.448C121.621 126.437 125.44 124.432 130.389 124.432C135.381 124.432 139.178 126.459 141.781 130.512C144.384 134.565 145.685 140.283 145.685 147.664C145.685 155.045 144.341 160.741 141.653 164.752C139.008 168.763 135.21 170.768 130.261 170.768ZM168.636 170.768C163.644 170.768 159.847 168.741 157.244 164.688C154.641 160.592 153.34 154.875 153.34 147.536C153.34 140.155 154.663 134.459 157.308 130.448C159.996 126.437 163.815 124.432 168.764 124.432C173.756 124.432 177.553 126.459 180.156 130.512C182.759 134.565 184.06 140.283 184.06 147.664C184.06 155.045 182.716 160.741 180.028 164.752C177.383 168.763 173.585 170.768 168.636 170.768ZM197.091 170V164.88H206.243V132.56L197.667 139.024L194.531 134.736L207.779 125.2H212.003V164.88H219.619V170H197.091ZM235.466 170V164.88H244.618V132.56L236.042 139.024L232.906 134.736L246.154 125.2H250.378V164.88H257.994V170H235.466ZM168.7 250.52C170.62 250.52 172.263 249.965 173.628 248.856C175.036 247.704 176.103 245.827 176.828 243.224C177.596 240.621 177.98 237.123 177.98 232.728C177.98 226.84 177.148 222.36 175.484 219.288C173.863 216.216 171.601 214.68 168.7 214.68C166.78 214.68 165.116 215.256 163.708 216.408C162.343 217.517 161.276 219.373 160.508 221.976C159.783 224.536 159.42 228.035 159.42 232.472C159.42 238.36 160.231 242.84 161.852 245.912C163.516 248.984 165.799 250.52 168.7 250.52ZM58.503 163.856C57.1377 164.965 55.495 165.52 53.575 165.52C50.6737 165.52 48.391 163.984 46.727 160.912C45.1057 157.84 44.295 153.36 44.295 147.472C44.295 143.035 44.6577 139.536 45.383 136.976C46.151 134.373 47.2177 132.517 48.583 131.408C49.991 130.256 51.655 129.68 53.575 129.68C56.4763 129.68 58.7377 131.216 60.359 134.288C62.023 137.36 62.855 141.84 62.855 147.728C62.855 152.123 62.471 155.621 61.703 158.224C60.9777 160.827 59.911 162.704 58.503 163.856ZM91.95 250.52C93.87 250.52 95.5127 249.965 96.878 248.856C98.286 247.704 99.3527 245.827 100.078 243.224C100.846 240.621 101.23 237.123 101.23 232.728C101.23 226.84 100.398 222.36 98.734 219.288C97.1127 216.216 94.8513 214.68 91.95 214.68C90.03 214.68 88.366 215.256 86.958 216.408C85.5927 217.517 84.526 219.373 83.758 221.976C83.0327 224.536 82.67 228.035 82.67 232.472C82.67 238.36 83.4807 242.84 85.102 245.912C86.766 248.984 89.0487 250.52 91.95 250.52ZM212.003 332.856C210.638 333.965 208.995 334.52 207.075 334.52C204.174 334.52 201.891 332.984 200.227 329.912C198.606 326.84 197.795 322.36 197.795 316.472C197.795 312.035 198.158 308.536 198.883 305.976C199.651 303.373 200.718 301.517 202.083 300.408C203.491 299.256 205.155 298.68 207.075 298.68C209.976 298.68 212.238 300.216 213.859 303.288C215.523 306.36 216.355 310.84 216.355 316.728C216.355 321.123 215.971 324.621 215.203 327.224C214.478 329.827 213.411 331.704 212.003 332.856ZM245.45 334.52C247.37 334.52 249.013 333.965 250.378 332.856C251.786 331.704 252.853 329.827 253.578 327.224C254.346 324.621 254.73 321.123 254.73 316.728C254.73 310.84 253.898 306.36 252.234 303.288C250.613 300.216 248.351 298.68 245.45 298.68C243.53 298.68 241.866 299.256 240.458 300.408C239.093 301.517 238.026 303.373 237.258 305.976C236.533 308.536 236.17 312.035 236.17 316.472C236.17 322.36 236.981 326.84 238.602 329.912C240.266 332.984 242.549 334.52 245.45 334.52ZM135.253 332.856C133.888 333.965 132.245 334.52 130.325 334.52C127.424 334.52 125.141 332.984 123.477 329.912C121.856 326.84 121.045 322.36 121.045 316.472C121.045 312.035 121.408 308.536 122.133 305.976C122.901 303.373 123.968 301.517 125.333 300.408C126.741 299.256 128.405 298.68 130.325 298.68C133.226 298.68 135.488 300.216 137.109 303.288C138.773 306.36 139.605 310.84 139.605 316.728C139.605 321.123 139.221 324.621 138.453 327.224C137.728 329.827 136.661 331.704 135.253 332.856Z" fill="url(#paint35_linear_1_2)"/>
<defs>
<linearGradient id="paint0_linear_1_2" x1="354" y1="-11" x2="-73" y2="331" gradientUnits="userSpaceOnUse">
<stop offset="0.466667" stop-color="#00E0FF"/>
<stop offset="0.534375" stop-color="#00E0FF" stop-opacity="0"/>
</linearGradient>
<linearGradient id="paint1_linear_1_2" x1="354" y1="-11" x2="-73" y2="331" gradientUnits="userSpaceOnUse">
<stop stop-color="white" stop-opacity="0"/>
<stop offset="0.0708332" stop-color="white"/>
</linearGradient>
<linearGradient id="paint2_linear_1_2" x1="354" y1="-11" x2="-73" y2="331" gradientUnits="userSpaceOnUse">
<stop stop-color="white" stop-opacity="0"/>
<stop offset="0.0708332" stop-color="white"/>
</linearGradient>
<linearGradient id="paint3_linear_1_2" x1="354" y1="-11" x2="-73" y2="331" gradientUnits="userSpaceOnUse">
<stop stop-color="white" stop-opacity="0"/>
<stop offset="0.0708332" stop-color="white"/>
</linearGradient>
<linearGradient id="paint4_linear_1_2" x1="354" y1="-11" x2="-73" y2="331" gradientUnits="userSpaceOnUse">
<stop stop-color="white" stop-opacity="0"/>
<stop offset="0.0708332" stop-color="white"/>
</linearGradient>
<linearGradient id="paint5_linear_1_2" x1="354" y1="-11" x2="-73" y2="331" gradientUnits="userSpaceOnUse">
<stop stop-color="white" stop-opacity="0"/>
<stop offset="0.0708332" stop-color="white"/>
</linearGradient>
<linearGradient id="paint6_linear_1_2" x1="354" y1="-11" x2="-73" y2="331" gradientUnits="userSpaceOnUse">
<stop stop-color="white" stop-opacity="0"/>
<stop offset="0.0708332" stop-color="white"/>
</linearGradient>
<linearGradient id="paint7_linear_1_2" x1="354" y1="-11" x2="-73" y2="331" gradientUnits="userSpaceOnUse">
<stop stop-color="white" stop-opacity="0"/>
<stop offset="0.0708332" stop-color="white"/>
</linearGradient>
<linearGradient id="paint8_linear_1_2" x1="354" y1="-11" x2="-73" y2="331" gradientUnits="userSpaceOnUse">
<stop stop-color="white" stop-opacity="0"/>
<stop offset="0.0708332" stop-color="white"/>
</linearGradient>
<linearGradient id="paint9_linear_1_2" x1="354" y1="-11" x2="-73" y2="331" gradientUnits="userSpaceOnUse">
<stop stop-color="white" stop-opacity="0"/>
<stop offset="0.0708332" stop-color="white"/>
</linearGradient>
<linearGradient id="paint10_linear_1_2" x1="354" y1="-11" x2="-73" y2="331" gradientUnits="userSpaceOnUse">
<stop stop-color="white" stop-opacity="0"/>
<stop offset="0.0708332" stop-color="white"/>
</linearGradient>
<linearGradient id="paint11_linear_1_2" x1="374" y1="59" x2="-9.00001" y2="375" gradientUnits="userSpaceOnUse">
<stop offset="0.523958" stop-color="#00E0FF" stop-opacity="0"/>
<stop offset="0.654167" stop-color="#00E0FF"/>
</linearGradient>
<linearGradient id="paint12_linear_1_2" x1="374" y1="59" x2="-9.00001" y2="375" gradientUnits="userSpaceOnUse">
<stop offset="0.523958" stop-color="#00E0FF" stop-opacity="0"/>
<stop offset="0.654167" stop-color="#00E0FF"/>
</linearGradient>
<linearGradient id="paint13_linear_1_2" x1="374" y1="59" x2="-9.00001" y2="375" gradientUnits="userSpaceOnUse">
<stop offset="0.523958" stop-color="#00E0FF" stop-opacity="0"/>
<stop offset="0.654167" stop-color="#00E0FF"/>
</linearGradient>
<linearGradient id="paint14_linear_1_2" x1="374" y1="59" x2="-9.00001" y2="375" gradientUnits="userSpaceOnUse">
<stop offset="0.523958" stop-color="#00E0FF" stop-opacity="0"/>
<stop offset="0.654167" stop-color="#00E0FF"/>
</linearGradient>
<linearGradient id="paint15_linear_1_2" x1="374" y1="59" x2="-9.00001" y2="375" gradientUnits="userSpaceOnUse">
<stop offset="0.523958" stop-color="#00E0FF" stop-opacity="0"/>
<stop offset="0.654167" stop-color="#00E0FF"/>
</linearGradient>
<linearGradient id="paint16_linear_1_2" x1="374" y1="59" x2="-9.00001" y2="375" gradientUnits="userSpaceOnUse">
<stop offset="0.523958" stop-color="#00E0FF" stop-opacity="0"/>
<stop offset="0.654167" stop-color="#00E0FF"/>
</linearGradient>
<linearGradient id="paint17_linear_1_2" x1="374" y1="59" x2="-9.00001" y2="375" gradientUnits="userSpaceOnUse">
<stop offset="0.523958" stop-color="#00E0FF" stop-opacity="0"/>
<stop offset="0.654167" stop-color="#00E0FF"/>
</linearGradient>
<linearGradient id="paint18_linear_1_2" x1="374" y1="59" x2="-9.00001" y2="375" gradientUnits="userSpaceOnUse">
<stop offset="0.523958" stop-color="#00E0FF" stop-opacity="0"/>
<stop offset="0.654167" stop-color="#00E0FF"/>
</linearGradient>
<linearGradient id="paint19_linear_1_2" x1="374" y1="59" x2="-9.00001" y2="375" gradientUnits="userSpaceOnUse">
<stop offset="0.523958" stop-color="#00E0FF" stop-opacity="0"/>
<stop offset="0.654167" stop-color="#00E0FF"/>
</linearGradient>
<linearGradient id="paint20_linear_1_2" x1="374" y1="59" x2="-9.00001" y2="375" gradientUnits="userSpaceOnUse">
<stop offset="0.523958" stop-color="#00E0FF" stop-opacity="0"/>
<stop offset="0.654167" stop-color="#00E0FF"/>
</linearGradient>
<linearGradient id="paint21_linear_1_2" x1="374" y1="59" x2="-9.00001" y2="375" gradientUnits="userSpaceOnUse">
<stop offset="0.523958" stop-color="#00E0FF" stop-opacity="0"/>
<stop offset="0.654167" stop-color="#00E0FF"/>
</linearGradient>
<linearGradient id="paint22_linear_1_2" x1="374" y1="59" x2="-9.00001" y2="375" gradientUnits="userSpaceOnUse">
<stop offset="0.523958" stop-color="#00E0FF" stop-opacity="0"/>
<stop offset="0.654167" stop-color="#00E0FF"/>
</linearGradient>
<linearGradient id="paint23_linear_1_2" x1="374" y1="59" x2="-9.00001" y2="375" gradientUnits="userSpaceOnUse">
<stop offset="0.523958" stop-color="#00E0FF" stop-opacity="0"/>
<stop offset="0.654167" stop-color="#00E0FF"/>
</linearGradient>
<linearGradient id="paint24_linear_1_2" x1="374" y1="59" x2="-9.00001" y2="375" gradientUnits="userSpaceOnUse">
<stop offset="0.523958" stop-color="#00E0FF" stop-opacity="0"/>
<stop offset="0.654167" stop-color="#00E0FF"/>
</linearGradient>
<linearGradient id="paint25_linear_1_2" x1="374" y1="59" x2="-9.00001" y2="375" gradientUnits="userSpaceOnUse">
<stop offset="0.523958" stop-color="#00E0FF" stop-opacity="0"/>
<stop offset="0.654167" stop-color="#00E0FF"/>
</linearGradient>
<linearGradient id="paint26_linear_1_2" x1="374" y1="59" x2="-9.00001" y2="375" gradientUnits="userSpaceOnUse">
<stop offset="0.523958" stop-color="#00E0FF" stop-opacity="0"/>
<stop offset="0.654167" stop-color="#00E0FF"/>
</linearGradient>
<linearGradient id="paint27_linear_1_2" x1="374" y1="59" x2="-9.00001" y2="375" gradientUnits="userSpaceOnUse">
<stop offset="0.523958" stop-color="#00E0FF" stop-opacity="0"/>
<stop offset="0.654167" stop-color="#00E0FF"/>
</linearGradient>
<linearGradient id="paint28_linear_1_2" x1="374" y1="59" x2="-9.00001" y2="375" gradientUnits="userSpaceOnUse">
<stop offset="0.523958" stop-color="#00E0FF" stop-opacity="0"/>
<stop offset="0.654167" stop-color="#00E0FF"/>
</linearGradient>
<linearGradient id="paint29_linear_1_2" x1="374" y1="59" x2="-9.00001" y2="375" gradientUnits="userSpaceOnUse">
<stop offset="0.523958" stop-color="#00E0FF" stop-opacity="0"/>
<stop offset="0.654167" stop-color="#00E0FF"/>
</linearGradient>
<linearGradient id="paint30_linear_1_2" x1="374" y1="59" x2="-9.00001" y2="375" gradientUnits="userSpaceOnUse">
<stop offset="0.523958" stop-color="#00E0FF" stop-opacity="0"/>
<stop offset="0.654167" stop-color="#00E0FF"/>
</linearGradient>
<linearGradient id="paint31_linear_1_2" x1="374" y1="59" x2="-9.00001" y2="375" gradientUnits="userSpaceOnUse">
<stop offset="0.523958" stop-color="#00E0FF" stop-opacity="0"/>
<stop offset="0.654167" stop-color="#00E0FF"/>
</linearGradient>
<linearGradient id="paint32_linear_1_2" x1="374" y1="59" x2="-9.00001" y2="375" gradientUnits="userSpaceOnUse">
<stop offset="0.523958" stop-color="#00E0FF" stop-opacity="0"/>
<stop offset="0.654167" stop-color="#00E0FF"/>
</linearGradient>
<linearGradient id="paint33_linear_1_2" x1="374" y1="59" x2="-9.00001" y2="375" gradientUnits="userSpaceOnUse">
<stop offset="0.523958" stop-color="#00E0FF" stop-opacity="0"/>
<stop offset="0.654167" stop-color="#00E0FF"/>
</linearGradient>
<linearGradient id="paint34_linear_1_2" x1="374" y1="59" x2="-9.00001" y2="375" gradientUnits="userSpaceOnUse">
<stop offset="0.523958" stop-color="#00E0FF" stop-opacity="0"/>
<stop offset="0.654167" stop-color="#00E0FF"/>
</linearGradient>
<linearGradient id="paint35_linear_1_2" x1="374" y1="59" x2="-9.00001" y2="375" gradientUnits="userSpaceOnUse">
<stop offset="0.523958" stop-color="#00E0FF" stop-opacity="0"/>
<stop offset="0.654167" stop-color="#00E0FF"/>
</linearGradient>
</defs>
</svg>
